<svg xmlns="http://www.w3.org/2000/svg" data-name="Layer 1" viewBox="0 0 5 6.25" x="0px" y="0px"><title>Hashtag_Hash_Social_Media_tag_Twitter_Sharing_Number_Keyword_Grid_Friend_Communication</title><path d="M3.93453,2.37158a.32651.32651,0,0,0-.084.07647.07568.07568,0,0,1-.06094.03606.0383.0383,0,0,0-.04007.04949.01916.01916,0,0,1-.00885.01628c-.05305.01667-.08507.07525-.14812.073-.01619-.00059-.02078.01472-.01846.03085.0025.01738-.00857.02874-.02368.02594-.02825-.00523-.04057.00666-.05915.02774a.61031.61031,0,0,1-.22611.18285.03412.03412,0,0,0-.02286.04169c.00242.01381.00176.02821.00466.04188a1.09884,1.09884,0,0,1,.02041.17644.74983.74983,0,0,0,.01477.08247.307.307,0,0,1,.01284.154c-.00789.02431.006.05521.00786.08326a.71206.71206,0,0,0,.00853.1352.77264.77264,0,0,1,.00926.13474.993.993,0,0,0,.02355.15416.25437.25437,0,0,1,.00688.08224c-.00315.05554-.00089.11137-.00237.167-.00025.00961-.00709.02678-.01223.0273-.0506.00512-.05424.04836-.06983.082l.00253-.00136A.09041.09041,0,0,0,3.25,4.2463a.07938.07938,0,0,0-.01854.00348.08018.08018,0,0,0,.01192.01463.0913.0913,0,0,0,.01779.00868L3.26,4.27058c.00468.02914.00984.05683-.023.07674-.01194.00725-.00363.02335.00736.03258l-.001-.0026c-.00424.01881-.01827.04271.02038.03924l.01866.04521-.00123-.00256c-.01745.03144-.01749.03148-.03854.01246a.347.347,0,0,0-.03147-.0279c-.00251-.00176-.01188.00388-.01646.008-.00936.00832-.01743.00931-.02354-.00239-.00314-.006-.007-.01494-.00474-.01976.0043-.009.01417-.01521.01912-.024.00245-.00436-.00089-.012-.00161-.01809-.03618.00612-.0376-.02513-.0465-.04556a1.15409,1.15409,0,0,1-.06463-.21047c-.01219-.05447-.02713-.10844-.04353-.16182-.03914-.12732-.06611-.25751-.09554-.3872a2.48073,2.48073,0,0,0-.06545-.28619A.69551.69551,0,0,1,2.85007,3.193a.03078.03078,0,0,0-.04823-.02137.25969.25969,0,0,0-.02585.01789.7499.7499,0,0,1-.16923.10551.31234.31234,0,0,0-.08.05.72574.72574,0,0,1-.1284.09062c-.034.01812-.04583.05234-.07227.07489a.034.034,0,0,0-.00719.0284,1.53923,1.53923,0,0,0,.02068.19754c-.01055.05524.01313.11089-.00433.167a.21411.21411,0,0,0,.00331.0729c.0034.04952-.00072.05517-.05438.0725-.00655.00211-.01718.00111-.01938.00513a.03441.03441,0,0,0-.00453.02695c.00654.01192.01787.02858.02844.02954.03125.00284.03438.01564.0209.03905a.10638.10638,0,0,0-.02085.06432.8296.8296,0,0,1,.009.08345c.00021.00765-.01031.01834-.01852.02265a.0331.0331,0,0,1-.02746.00043.78325.78325,0,0,0-.09259-.06652l.00754-.0283-.00377-.009-.01276.01209a.1026.1026,0,0,0,.01152.02422c-.02576.02164-.04955.04228-.04076.08319a.15622.15622,0,0,1-.01081.05756.10221.10221,0,0,0-.02434.01089l.002.01739.00862-.00433.0125-.02626a.02974.02974,0,0,1,.00884.03736c-.006.01343-.01444.02423-.03148.02087a.08678.08678,0,0,1-.07308-.07813L2.01769,4.363c.00985-.00972.02528-.02178.01413-.0343-.01525-.01712-.023-.04855-.05283-.04485a.03049.03049,0,0,1-.03832-.02453.83218.83218,0,0,1-.02437-.09089c-.0047-.02595-.01949-.05269-.00021-.07994.00224-.00317-.00749-.01578-.01285-.02315a.07.07,0,0,1-.01111-.0696l.028.007.009-.00348L1.917,3.9869a.10061.10061,0,0,0-.02383.01137.20553.20553,0,0,1-.02288-.04606.762.762,0,0,1-.01271-.09381c-.00693-.07679-.03122-.075-.0876-.04385a1.32489,1.32489,0,0,1-.24545.096A.29161.29161,0,0,1,1.34869,3.909c-.042-.01313-.0901-.01715-.11962-.05754.01852-.03976.05667-.06092.08635-.0899a1.43354,1.43354,0,0,1,.31469-.22609c.05656-.03112.09562-.08289.15226-.11233.007-.00365.01036-.018.0117-.02792a.13988.13988,0,0,0-.003-.0313c-.01863-.18833-.02688-.37729-.035-.56627a.107.107,0,0,0-.00776-.04089.02978.02978,0,0,0-.02538-.00934.04274.04274,0,0,0-.02695.01508.375.375,0,0,1-.15814.11662.63649.63649,0,0,0-.14937.07841.06216.06216,0,0,1-.02875.01037c-.01728.00311-.03488.00454-.05237.00638a.35114.35114,0,0,1-.11473.009A.3847.3847,0,0,1,1.098,2.92123a.44009.44009,0,0,0-.05681-.02782c-.02573-.01158-.03177-.03636-.04-.05932l.00664-.01459c.04923-.01142.07617-.06011.12394-.07351.00213.00545-.009.01988.00959.01418l-.01206-.013c.00517-.00919.00811-.02146.01586-.0271.09391-.06833.17532-.15127.26463-.22493a1.904,1.904,0,0,1,.25477-.18524.4095.4095,0,0,0,.04361-.02929.05617.05617,0,0,0,.02206-.054c-.00841-.14685-.01394-.29387-.02-.44086a.75069.75069,0,0,0-.01859-.17523A.55027.55027,0,0,1,1.68712,1.527a.86031.86031,0,0,0-.011-.135A.19269.19269,0,0,1,1.667,1.26812a.23906.23906,0,0,0-.00633-.09381c-.00291-.03138-.008-.06272-.00839-.09413-.00076-.05486.00067-.054.05318-.06835A.53046.53046,0,0,1,1.84.993a.51812.51812,0,0,1,.201.05777.06057.06057,0,0,1,.02679.03088.57475.57475,0,0,1,.08461.23671,1.9161,1.9161,0,0,1,.07092.31689,2.04941,2.04941,0,0,1,.024.21981c.00276.02776.00381.05571.00719.08339.002.01625.0149.02193.0312.01585.09535-.03551.19086-.07058.28583-.10707a.3636.3636,0,0,0,.044-.02775c.02751-.01557.05559-.03016.08343-.04516-.00016-.03835-.00015-.07671-.00061-.11505a.12063.12063,0,0,0-.00321-.02093c-.02319-.12081-.02525-.24394-.03981-.3657A.2177.2177,0,0,1,2.655,1.16815a.0598.0598,0,0,0,.00044-.031A2.19178,2.19178,0,0,1,2.635.69745c-.0002-.0394.03264-.072.01875-.11322C2.6528.58144,2.66205.57366,2.66782.57046,2.68324.56189,2.6991.554,2.71521.54682c.098-.04366.07311-.03841.16927-.00538A.12639.12639,0,0,1,2.964.61951a.31607.31607,0,0,1,.04048.13011.39052.39052,0,0,0,.02921.10071c.00779.03332-.00294.07126.02558.09963a.02792.02792,0,0,1,.00567.01929,1.73346,1.73346,0,0,0,.02746.23953,3.20273,3.20273,0,0,1,.04.39656c-.00059.01626.01969.03528.03444.03183.04086-.00956.08148-.02022.122-.03123.03383-.0092.06758-.01885.10095-.0296.01769-.0057.02789.02413.04647.00833.01059-.009.01949-.02246.03166-.02669a.78371.78371,0,0,1,.11-.02985c.0047-.0009.01469.02191.021.03437.007.014.00878.02682-.01318.0276a.05267.05267,0,0,0-.05236.02882.05047.05047,0,0,1-.049.03166c-.00012.02354-.017.03229-.0334.04575a1.29871,1.29871,0,0,0-.16054.118.19765.19765,0,0,1-.0652.03388.078.078,0,0,0-.0493.08454c.0009.01043-.00008.02109.00143.03141a1.22734,1.22734,0,0,1,.00409.176c.00014.056.003.112.0061.1679.00329.05951.00958.11887.01219.17839.00527.12009.00732.11684.10939.06833.05105-.02427.10187-.04927.15416-.0706.04142-.01689.0788-.0493.12947-.03728.00728.00173.01741-.00886.0263-.0136.028-.01491.05635-.02906.08386-.04478a.13048.13048,0,0,1,.13057-.00957c.01906.00937.02328-.00362.02153-.02078-.00067-.00651.00041-.01769.00416-.01949.04092-.01957.08237-.03808.12439-.05514.00224-.00091.0165.01469.01556.02121-.00549.038-.02254.067-.06676.06794-.00146-.00616.00926-.02087-.01014-.01444ZM2.7967,2.80314l-.00128-.0105C2.78954,2.7582,2.78188,2.724,2.778,2.6893a1.74041,1.74041,0,0,1-.02149-.24072c.0024-.08086-.02339-.15794-.01783-.23874.00388-.05629-.01263-.06449-.061-.04253-.02889.01312-.05684.02836-.086.04092-.02529.01092-.0533.01638-.07716.02959-.06123.03389-.1156.07916-.17949.10915a.21324.21324,0,0,0-.04073.0329.04085.04085,0,0,0-.01755.0355c.00238.06626.00185.13264.0046.19888.00449.10834.01448.21662.01407.32489a.66805.66805,0,0,0,.01389.10311c.00346.02352.01736.0306.03451.01908.06379-.04282.13411-.07352.20128-.11.07941-.04319.15722-.08935.23556-.13449A.1103.1103,0,0,0,2.7967,2.80314Zm.453-1.12071.01112-.013-.00251-.00825-.01167.00634C3.24544,1.67185,3.24847,1.67737,3.24971,1.68243Zm.15245,1.08369-.00388-.01533L3.39,2.755a.09477.09477,0,0,0-.00068.01765ZM2.07093,4.16252l-.0132-.0115-.00838.00272.00657.01213C2.06018,4.16716,2.06582,4.16387,2.07093,4.16252Zm1.03525-.05359-.00571.00414.00577.003ZM3.146,4.1235l-.00558.004.00564.00293Zm.15239-.29589.006-.00456-.006-.003Zm-1.32769.41767.00588-.00439-.006-.003Zm.0863.02723-.00458-.006-.00306.00611Zm.07914-.24342.004.0056L2.1431,4.029Zm1.19637-2.39-.00565.00414.00566.00293Z"/><text x="0" y="20" fill="#000000" font-size="5px" font-weight="bold" font-family="'Helvetica Neue', Helvetica, Arial-Unicode, Arial, Sans-serif">Created by Alice Noir</text><text x="0" y="25" fill="#000000" font-size="5px" font-weight="bold" font-family="'Helvetica Neue', Helvetica, Arial-Unicode, Arial, Sans-serif">from the Noun Project</text></svg>