<svg xmlns:dc="http://purl.org/dc/elements/1.1/" xmlns:cc="http://creativecommons.org/ns#" xmlns:rdf="http://www.w3.org/1999/02/22-rdf-syntax-ns#" xmlns:svg="http://www.w3.org/2000/svg" xmlns="http://www.w3.org/2000/svg" xmlns:sodipodi="http://sodipodi.sourceforge.net/DTD/sodipodi-0.dtd" xmlns:inkscape="http://www.inkscape.org/namespaces/inkscape" version="1.1" x="0px" y="0px" viewBox="0 0 100 125"><g transform="translate(0,-952.36218)"><path style="text-indent:0;text-transform:none;direction:ltr;block-progression:tb;baseline-shift:baseline;color:#000000;enable-background:accumulate;" d="M 7.6875,5 C 6.2236588,5.1534295 4.9921284,6.5281611 5,8 l 0,84 c 1.571e-4,1.570753 1.4292466,2.999843 3,3 l 84,0 c 1.570753,-1.57e-4 2.999843,-1.429247 3,-3 l 0,-32 c 0.02241,-1.584938 -1.414904,-3.042726 -3,-3.042726 -1.585096,0 -3.022415,1.457788 -3,3.042726 l 0,29 -78,0 0,-78 78,0 0,39 c -0.02241,1.584938 1.414904,3.042726 3,3.042726 1.585096,0 3.022415,-1.457788 3,-3.042726 L 95,8 C 94.999843,6.4292466 93.570753,5.0001571 92,5 63.902841,4.9999996 35.762392,5 7.6875,5 z M 81.84375,19 C 81.374754,19.0176 80.910336,19.147203 80.5,19.375 76.607162,21.60939 74.115859,22.77822 71.71875,23.5625 68.898749,21.03911 65.382238,19.93462 61.9375,20 56.751637,20.0985 52.501323,22.81576 49.8125,26.46875 47.789609,29.21701 46.530752,32.47444 46.125,35.8125 37.231982,34.8523 29.892337,28.81909 25.59375,21.46875 25.044467,20.514152 23.935364,19.911071 22.835537,19.968957 21.735711,20.026842 20.696042,20.743017 20.25,21.75 c -2.246122,4.97879 -2.89105,9.75692 -1.8125,14.125 0.181338,0.73441 0.478322,1.42413 0.75,2.125 -1.611436,-0.101032 -3.156868,1.323191 -3.1875,2.9375 -0.05664,3.94364 1.752513,7.78875 4.4375,11.09375 -1.711131,0.324902 -2.860908,2.36895 -2.25,4 0.820583,2.1914 2.66486,4.69935 6.09375,7.28125 1.48171,1.1157 3.325327,2.1143 5.375,2.9375 -4.342062,1.2652 -9.22158,1.9097 -12.5,1.75 -1.191802,-0.06725 -2.390191,0.651797 -2.891691,1.735039 C 13.763058,70.81828 13.990139,72.197262 14.8125,73.0625 19.061858,77.5384 27.596672,80.9806 38,81 58.714637,81.039 77.648256,64.0479 77.875,39.5625 c 0.679368,-0.42046 0.962498,-0.46392 2.09375,-1.46875 2.847869,-2.968674 5.127184,-5.841013 6.6875,-8.6875 C 87.055854,28.619169 87.042183,27.754236 86.875,27.125 86.476796,25.786656 85.043421,24.84035 83.65625,25 c 0.33569,-0.57396 0.662047,-0.97994 1,-1.625 0.481797,-0.93154 0.425953,-2.118571 -0.141171,-3.000765 C 83.947954,19.492042 82.89124,18.948427 81.84375,19 z M 62.0625,26 c 2.836393,-0.0538 4.777399,0.56108 6.59375,2.84375 0.710177,0.908589 1.975186,1.343037 3.09375,1.0625 0.189111,-0.0486 0.374726,-0.16629 0.5625,-0.21875 -0.112105,0.2662 -0.249972,0.62488 -0.25,0.625 -0.284978,0.747203 -0.0037,1.609393 0.5,2.46875 0.08033,0.137044 0.657175,1.129303 2.0625,1.1875 1.86e-4,8e-6 0.874703,5e-5 0.875,0 -0.926923,0.73038 -1.8125,1.3125 -1.8125,1.3125 C 72.656748,35.782285 71.968352,36.916864 72,38.0625 72.588241,60.3647 55.873174,75.0335 38,75 34.061088,74.99 30.48826,74.22035 27.40625,73.21875 c 4.923354,-0.8886 9.939833,-2.62415 13.625,-6.03125 0.875426,-0.821803 1.178153,-2.196969 0.728749,-3.310417 C 41.310595,62.763634 40.138113,61.983883 38.9375,62 c -3.708074,0.075 -6.456147,-0.99095 -8.78125,-2.28125 1.404414,0.09558 2.668257,0.256618 3.9375,0.28125 1.570872,0.07376 3.067234,-1.288485 3.140869,-2.859364 C 37.308254,55.569758 35.945884,54.073506 34.375,54 c -3.097151,-0.3859 -6.325833,-2.33915 -8.6875,-4.96875 -0.484188,-0.5391 -0.729293,-1.14265 -1.125,-1.71875 1.031221,0.323 2.091936,0.57575 3.21875,0.65625 1.238107,0.0732 2.481222,-0.707925 2.952423,-1.855199 C 31.204875,44.966278 30.869647,43.5369 29.9375,42.71875 26.793663,40.02412 24.991847,37.31538 24.28125,34.4375 23.91022,32.93485 23.863014,31.30356 24.125,29.53125 30.03845,36.71789 38.643611,42.16951 49.0625,42 50.665772,41.968619 52.083658,40.445146 52,38.84375 51.859411,35.83095 52.82634,32.47488 54.625,30.03125 56.42366,27.58762 58.85046,26.06099 62.0625,26 z" transform="translate(0,952.36218)" fill="#000000" fill-opacity="1" stroke="none" marker="none" visibility="visible" display="inline" overflow="visible"/></g><text x="0" y="115" fill="#000000" font-size="5px" font-weight="bold" font-family="'Helvetica Neue', Helvetica, Arial-Unicode, Arial, Sans-serif"></text><text x="0" y="120" fill="#000000" font-size="5px" font-weight="bold" font-family="'Helvetica Neue', Helvetica, Arial-Unicode, Arial, Sans-serif"></text></svg>